<svg width="40" height="40" viewBox="0 0 40 40" fill="none" xmlns="http://www.w3.org/2000/svg">
<rect width="40" height="40" rx="12" fill="url(#paint0_linear)"/>
<!-- Checkered/Globe Pattern Background -->
<path d="M20 7C12.8203 7 7 12.8203 7 20C7 27.1797 12.8203 33 20 33C27.1797 33 33 27.1797 33 20C33 12.8203 27.1797 7 20 7Z" stroke="white" stroke-width="2" stroke-opacity="0.2"/>
<path d="M7 20H33" stroke="white" stroke-width="2" stroke-opacity="0.2"/>
<path d="M20 7C22.5 10 24 15 24 20C24 25 22.5 30 20 33" stroke="white" stroke-width="2" stroke-opacity="0.2"/>
<path d="M20 7C17.5 10 16 15 16 20C16 25 17.5 30 20 33" stroke="white" stroke-width="2" stroke-opacity="0.2"/>
<!-- Money Symbol (Dollar) - Scaled Down (0.8x) & Partial Line -->
<g transform="translate(4 4) scale(0.8)">
<path d="M20 10V13 M20 27V30" stroke="white" stroke-width="3.5" stroke-linecap="round" stroke-linejoin="round"/>
<path d="M15.5 13H20C22.2091 13 24 14.7909 24 17C24 19.2091 22.2091 21 20 21H19C16.7909 21 15 22.7909 15 25C15 27.2091 16.7909 29 19 29H24.5" stroke="white" stroke-width="3" stroke-linecap="round" stroke-linejoin="round"/>
</g>
<defs>
<linearGradient id="paint0_linear" x1="0" y1="0" x2="40" y2="40" gradientUnits="userSpaceOnUse">
<stop stop-color="#FF6347"/>
<stop offset="1" stop-color="#FF8C00"/>
</linearGradient>
</defs>
</svg>
