<svg width="40" height="40" viewBox="0 0 40 40" fill="none" xmlns="http://www.w3.org/2000/svg">
<rect width="40" height="40" rx="12" fill="url(#paint0_linear)"/>
<path d="M20 7C12.8203 7 7 12.8203 7 20C7 27.1797 12.8203 33 20 33C27.1797 33 33 27.1797 33 20C33 12.8203 27.1797 7 20 7Z" stroke="white" stroke-width="2" stroke-opacity="0.3"/>
<path d="M7 20H33" stroke="white" stroke-width="2" stroke-opacity="0.3"/>
<path d="M20 7C22.5 10 24 15 24 20C24 25 22.5 30 20 33" stroke="white" stroke-width="2" stroke-opacity="0.3"/>
<path d="M20 7C17.5 10 16 15 16 20C16 25 17.5 30 20 33" stroke="white" stroke-width="2" stroke-opacity="0.3"/>
<path d="M25 14L15 26" stroke="white" stroke-width="3" stroke-linecap="round"/>
<circle cx="25" cy="14" r="3" fill="white"/>
<circle cx="15" cy="26" r="3" fill="white"/>
<defs>
<linearGradient id="paint0_linear" x1="0" y1="0" x2="40" y2="40" gradientUnits="userSpaceOnUse">
<stop stop-color="#FF6347"/>
<stop offset="1" stop-color="#FF8C00"/>
</linearGradient>
</defs>
</svg>
