<svg width="40" height="40" viewBox="0 0 40 40" fill="none" xmlns="http://www.w3.org/2000/svg">
<rect width="40" height="40" rx="12" fill="url(#paint0_linear)"/>
<!-- Checkered/Globe Pattern Background -->
<path d="M20 7C12.8203 7 7 12.8203 7 20C7 27.1797 12.8203 33 20 33C27.1797 33 33 27.1797 33 20C33 12.8203 27.1797 7 20 7Z" stroke="white" stroke-width="2" stroke-opacity="0.2"/>
<path d="M7 20H33" stroke="white" stroke-width="2" stroke-opacity="0.2"/>
<path d="M20 7C22.5 10 24 15 24 20C24 25 22.5 30 20 33" stroke="white" stroke-width="2" stroke-opacity="0.2"/>
<path d="M20 7C17.5 10 16 15 16 20C16 25 17.5 30 20 33" stroke="white" stroke-width="2" stroke-opacity="0.2"/>
<!-- Rupee Symbol - Scaled Down (0.6x) and Centered -->
<g transform="translate(8 8) scale(0.6)">
<path d="M14 12H26 M14 17H26 M14 12C22 12 22 22 14 22L25 32" stroke="white" stroke-width="4" stroke-linecap="round" stroke-linejoin="round"/>
</g>
<defs>
<linearGradient id="paint0_linear" x1="0" y1="0" x2="40" y2="40" gradientUnits="userSpaceOnUse">
<stop stop-color="#FF6347"/>
<stop offset="1" stop-color="#FF8C00"/>
</linearGradient>
</defs>
</svg>
